<svg width="2247" height="529" viewBox="0 0 2247 529" fill="none" xmlns="http://www.w3.org/2000/svg">
<path fill-rule="evenodd" clip-rule="evenodd" d="M343.249 298.895V249.386H345.795V298.895C345.781 311.419 340.805 323.425 331.957 332.28C323.11 341.134 311.114 346.113 298.604 346.123H67.1914C54.6808 346.113 42.6852 341.134 33.8377 332.28C24.9901 323.425 20.0135 311.419 20 298.895V67.2408C20.0135 54.7159 24.9897 42.7078 33.8369 33.8514C42.6841 24.995 54.6796 20.0135 67.1914 20H298.604C311.115 20.0135 323.111 24.995 331.958 33.8514C340.805 42.7078 345.781 54.7159 345.795 67.2408V119.755H343.249V67.2408C343.235 55.3918 338.527 44.0321 330.158 35.6536C321.788 27.2752 310.44 22.5622 298.604 22.5487H67.1914C55.3548 22.5622 44.007 27.2752 35.6373 35.6536C27.2676 44.0321 22.5595 55.3918 22.5461 67.2408V298.895C22.5596 310.743 27.268 322.101 35.638 330.478C44.0081 338.854 55.356 343.564 67.1914 343.574H298.604C310.438 343.561 321.784 338.85 330.153 330.474C338.522 322.098 343.232 310.742 343.249 298.895ZM479.639 196.797C488.822 205.989 493.987 218.452 494 231.452V459.515C493.987 472.514 488.822 484.978 479.639 494.17C470.456 503.362 458.004 508.532 445.017 508.545H217.188C204.201 508.532 191.75 503.362 182.567 494.17C173.383 484.978 168.218 472.514 168.205 459.515V410.069H174.472V459.515C174.485 470.851 178.99 481.718 186.998 489.734C195.006 497.75 205.863 502.259 217.188 502.272H445.017C456.342 502.259 467.199 497.75 475.207 489.734C483.215 481.718 487.72 470.851 487.733 459.515V231.452C487.72 220.116 483.215 209.248 475.207 201.233C467.199 193.217 456.342 188.708 445.017 188.695H217.188C205.863 188.708 195.006 193.217 186.998 201.233C178.99 209.248 174.485 220.116 174.472 231.452V280.259H168.205V231.452C168.218 218.452 173.383 205.989 182.567 196.797C191.75 187.605 204.201 182.435 217.188 182.422H445.017C458.004 182.435 470.456 187.605 479.639 196.797Z" fill="url(#paint0_linear_1137_214)"/>
<path d="M343.249 249.386V229.56H323.423V249.386H343.249ZM343.249 298.895L363.075 298.923L363.075 298.909V298.895H343.249ZM345.795 249.386H365.621V229.56H345.795V249.386ZM345.795 298.895L365.621 298.916L365.621 298.906V298.895H345.795ZM331.957 332.28L317.933 318.266L317.933 318.266L331.957 332.28ZM298.604 346.123V365.949H298.612L298.62 365.949L298.604 346.123ZM67.1914 346.123L67.1753 365.949L67.1833 365.949H67.1914V346.123ZM20 298.895H0.173897V298.906L0.173908 298.916L20 298.895ZM20 67.2408L0.173908 67.2194L0.173897 67.2301V67.2408H20ZM33.8369 33.8514L19.8104 19.8396L19.8104 19.8396L33.8369 33.8514ZM67.1914 20V0.173897H67.1807L67.17 0.173908L67.1914 20ZM298.604 20L298.625 0.173908L298.614 0.173897H298.604V20ZM331.958 33.8514L317.931 47.8632L317.931 47.8632L331.958 33.8514ZM345.795 67.2408H365.621V67.2301L365.621 67.2194L345.795 67.2408ZM345.795 119.755V139.581H365.621V119.755H345.795ZM343.249 119.755H323.423V139.581H343.249V119.755ZM343.249 67.2408H363.075V67.2295L363.075 67.2182L343.249 67.2408ZM298.604 22.5487L298.626 2.72264L298.615 2.72263H298.604V22.5487ZM67.1914 22.5487V2.72263H67.1801L67.1688 2.72264L67.1914 22.5487ZM35.6373 35.6536L49.6638 49.6655L49.6638 49.6655L35.6373 35.6536ZM22.5461 67.2408L2.71998 67.2182L2.71996 67.2295V67.2408H22.5461ZM22.5461 298.895H2.71996V298.906L2.71998 298.918L22.5461 298.895ZM35.638 330.478L49.6625 316.464L49.6625 316.464L35.638 330.478ZM67.1914 343.574L67.1744 363.4L67.1829 363.4H67.1914V343.574ZM298.604 343.574V363.4H298.615L298.626 363.4L298.604 343.574ZM330.153 330.474L344.178 344.488L344.178 344.488L330.153 330.474ZM494 231.452H513.826V231.442L513.826 231.432L494 231.452ZM479.639 196.797L493.665 182.785L493.665 182.785L479.639 196.797ZM494 459.515L513.826 459.535L513.826 459.525V459.515H494ZM479.639 494.17L493.665 508.182L493.665 508.182L479.639 494.17ZM445.017 508.545V528.371H445.028L445.038 528.371L445.017 508.545ZM217.188 508.545L217.168 528.371L217.178 528.371H217.188V508.545ZM182.567 494.17L168.541 508.182L168.541 508.182L182.567 494.17ZM168.205 459.515H148.379V459.525L148.379 459.535L168.205 459.515ZM168.205 410.069V390.242H148.379V410.069H168.205ZM174.472 410.069H194.298V390.242H174.472V410.069ZM174.472 459.515H154.646V459.526L154.646 459.538L174.472 459.515ZM217.188 502.272L217.165 522.098L217.176 522.098H217.188V502.272ZM445.017 502.272V522.098H445.029L445.041 522.098L445.017 502.272ZM487.733 459.515L507.559 459.538L507.559 459.526V459.515H487.733ZM487.733 231.452H507.559V231.44L507.559 231.429L487.733 231.452ZM445.017 188.695L445.041 168.869L445.029 168.869H445.017V188.695ZM217.188 188.695V168.869H217.176L217.165 168.869L217.188 188.695ZM174.472 231.452L154.646 231.429L154.646 231.44V231.452H174.472ZM174.472 280.259V300.085H194.298V280.259H174.472ZM168.205 280.259H148.379V300.085H168.205V280.259ZM168.205 231.452L148.379 231.432L148.379 231.442V231.452H168.205ZM182.567 196.797L168.541 182.785L168.541 182.785L182.567 196.797ZM217.188 182.422V162.596H217.178L217.168 162.596L217.188 182.422ZM445.017 182.422L445.038 162.596L445.028 162.596H445.017V182.422ZM323.423 249.386V298.895H363.075V249.386H323.423ZM345.795 229.56H343.249V269.212H345.795V229.56ZM365.621 298.895V249.386H325.969V298.895H365.621ZM345.982 346.294C358.541 333.725 365.602 316.685 365.621 298.916L325.969 298.874C325.961 306.152 323.068 313.126 317.933 318.266L345.982 346.294ZM298.62 365.949C316.389 365.935 333.422 358.863 345.982 346.294L317.933 318.266C312.797 323.405 305.84 326.291 298.587 326.297L298.62 365.949ZM67.1914 365.949H298.604V326.297H67.1914V365.949ZM19.8131 346.294C32.373 358.863 49.4063 365.935 67.1753 365.949L67.2074 326.297C59.9552 326.291 52.9974 323.405 47.8623 318.266L19.8131 346.294ZM0.173908 298.916C0.19304 316.685 7.2538 333.725 19.8131 346.294L47.8623 318.266C42.7265 313.126 39.8339 306.152 39.8261 298.874L0.173908 298.916ZM0.173897 67.2408V298.895H39.8261V67.2408H0.173897ZM19.8104 19.8396C7.25264 32.4105 0.193031 49.4504 0.173908 67.2194L39.8261 67.2621C39.8339 59.9813 42.7268 53.0052 47.8634 47.8632L19.8104 19.8396ZM67.17 0.173908C49.4007 0.193071 32.3689 7.26796 19.8104 19.8396L47.8634 47.8632C52.9993 42.722 59.9584 39.8339 67.2128 39.8261L67.17 0.173908ZM298.604 0.173897H67.1914V39.8261H298.604V0.173897ZM345.984 19.8396C333.426 7.26795 316.394 0.193071 298.625 0.173908L298.582 39.8261C305.836 39.8339 312.796 42.722 317.931 47.8632L345.984 19.8396ZM365.621 67.2194C365.602 49.4504 358.542 32.4105 345.984 19.8396L317.931 47.8632C323.068 53.0052 325.961 59.9814 325.969 67.2621L365.621 67.2194ZM365.621 119.755V67.2408H325.969V119.755H365.621ZM343.249 139.581H345.795V99.9292H343.249V139.581ZM323.423 67.2408V119.755H363.075V67.2408H323.423ZM316.131 49.6655C320.791 54.3298 323.415 60.6581 323.423 67.2633L363.075 67.2182C363.055 50.1255 356.264 33.7344 344.184 21.6418L316.131 49.6655ZM298.581 42.3748C305.16 42.3823 311.472 45.0019 316.131 49.6655L344.184 21.6418C332.103 9.54847 315.72 2.74213 298.626 2.72264L298.581 42.3748ZM67.1914 42.3748H298.604V2.72263H67.1914V42.3748ZM49.6638 49.6655C54.3225 45.0019 60.6345 42.3823 67.214 42.3748L67.1688 2.72264C50.0752 2.74213 33.6914 9.54846 21.6108 21.6418L49.6638 49.6655ZM42.3722 67.2633C42.3797 60.6581 45.0044 54.3297 49.6638 49.6655L21.6108 21.6418C9.53076 33.7344 2.73942 50.1256 2.71998 67.2182L42.3722 67.2633ZM42.3722 298.895V67.2408H2.71996V298.895H42.3722ZM49.6625 316.464C45.004 311.802 42.3797 305.476 42.3722 298.872L2.71998 298.918C2.73943 316.01 9.53196 332.401 21.6135 344.491L49.6625 316.464ZM67.2083 323.748C60.631 323.743 54.3204 321.125 49.6625 316.464L21.6135 344.491C33.6958 356.583 50.081 363.386 67.1744 363.4L67.2083 323.748ZM298.604 323.748H67.1914V363.4H298.604V323.748ZM316.129 316.46C311.47 321.122 305.159 323.741 298.581 323.748L298.626 363.4C315.716 363.381 332.097 356.577 344.178 344.488L316.129 316.46ZM323.423 298.867C323.413 305.471 320.788 311.797 316.129 316.46L344.178 344.488C356.257 332.399 363.051 316.013 363.075 298.923L323.423 298.867ZM513.826 231.432C513.808 213.187 506.559 195.691 493.665 182.785L465.613 210.81C471.085 216.287 474.166 223.718 474.174 231.472L513.826 231.432ZM513.826 459.515V231.452H474.174V459.515H513.826ZM493.665 508.182C506.559 495.275 513.808 477.78 513.826 459.535L474.174 459.495C474.166 467.249 471.085 474.68 465.613 480.157L493.665 508.182ZM445.038 528.371C463.282 528.352 480.77 521.089 493.665 508.182L465.613 480.157C460.141 485.634 452.727 488.711 444.997 488.719L445.038 528.371ZM217.188 528.371H445.017V488.719H217.188V528.371ZM168.541 508.182C181.435 521.089 198.923 528.352 217.168 528.371L217.208 488.719C209.479 488.711 202.064 485.634 196.593 480.157L168.541 508.182ZM148.379 459.535C148.398 477.78 155.646 495.275 168.541 508.182L196.593 480.157C191.12 474.68 188.039 467.249 188.031 459.495L148.379 459.535ZM148.379 410.069V459.515H188.031V410.069H148.379ZM174.472 390.242H168.205V429.895H174.472V390.242ZM194.298 459.515V410.069H154.646V459.515H194.298ZM201.024 475.722C196.726 471.42 194.305 465.583 194.298 459.492L154.646 459.538C154.666 476.118 161.254 492.017 172.972 503.746L201.024 475.722ZM217.211 482.446C211.143 482.439 205.321 480.023 201.024 475.722L172.972 503.746C184.691 515.477 200.583 522.078 217.165 522.098L217.211 482.446ZM445.017 482.446H217.188V522.098H445.017V482.446ZM461.181 475.722C456.885 480.023 451.063 482.439 444.994 482.446L445.041 522.098C461.622 522.078 477.514 515.477 489.233 503.746L461.181 475.722ZM467.907 459.492C467.9 465.583 465.479 471.42 461.181 475.722L489.233 503.746C500.952 492.017 507.54 476.118 507.559 459.538L467.907 459.492ZM467.907 231.452V459.515H507.559V231.452H467.907ZM461.181 215.245C465.479 219.547 467.9 225.383 467.907 231.475L507.559 231.429C507.54 214.849 500.952 198.95 489.233 187.22L461.181 215.245ZM444.994 208.521C451.063 208.528 456.884 210.944 461.181 215.245L489.233 187.22C477.514 175.49 461.622 168.888 445.041 168.869L444.994 208.521ZM217.188 208.521H445.017V168.869H217.188V208.521ZM201.024 215.245C205.321 210.944 211.143 208.528 217.211 208.521L217.165 168.869C200.583 168.888 184.691 175.49 172.972 187.22L201.024 215.245ZM194.298 231.475C194.305 225.383 196.726 219.547 201.024 215.245L172.972 187.22C161.254 198.95 154.666 214.849 154.646 231.429L194.298 231.475ZM194.298 280.259V231.452H154.646V280.259H194.298ZM168.205 300.085H174.472V260.433H168.205V300.085ZM148.379 231.452V280.259H188.031V231.452H148.379ZM168.541 182.785C155.646 195.691 148.398 213.187 148.379 231.432L188.031 231.472C188.039 223.718 191.12 216.287 196.593 210.81L168.541 182.785ZM217.168 162.596C198.923 162.614 181.435 169.877 168.541 182.785L196.593 210.81C202.064 205.333 209.479 202.256 217.208 202.248L217.168 162.596ZM445.017 162.596H217.188V202.248H445.017V162.596ZM493.665 182.785C480.77 169.877 463.282 162.614 445.038 162.596L444.997 202.248C452.727 202.256 460.141 205.333 465.613 210.81L493.665 182.785Z" fill="url(#paint1_linear_1137_214)"/>
<path d="M1001.04 391.035C988.765 391.035 977.371 388.784 966.854 384.283C956.586 379.782 948.323 372.529 942.062 362.526C935.802 352.523 932.671 339.52 932.671 323.515V199.728H972.864V313.387C972.864 330.392 976.495 342.145 983.757 348.647C991.019 354.899 1001.16 358.025 1014.18 358.025C1020.44 358.025 1026.45 357.025 1032.21 355.024C1038.22 352.773 1043.61 349.397 1048.37 344.896C1053.12 340.145 1056.75 334.143 1059.26 326.891C1062.01 319.639 1063.39 311.136 1063.39 301.383V199.728H1103.58V387.284H1068.27L1066.4 356.9C1059.88 368.653 1051.12 377.281 1040.1 382.782C1029.08 388.284 1016.06 391.035 1001.04 391.035Z" fill="black"/>
<path d="M1267.04 391.035C1256.02 391.035 1245.88 388.909 1236.62 384.658C1227.6 380.407 1219.96 374.53 1213.7 367.028C1207.44 359.275 1202.81 350.648 1199.81 341.145L1204.69 334.768L1201.68 387.284H1166.37V115.328H1206.57V246.992L1202.06 240.615C1206.82 227.611 1214.96 216.983 1226.47 208.731C1237.99 200.228 1251.89 195.977 1268.17 195.977C1283.19 195.977 1296.97 199.853 1309.49 207.605C1322.26 215.357 1332.28 226.486 1339.54 240.99C1346.8 255.494 1350.43 273.125 1350.43 293.881C1350.43 314.137 1346.68 331.517 1339.16 346.021C1331.9 360.526 1321.88 371.654 1309.11 379.406C1296.59 387.159 1282.57 391.035 1267.04 391.035ZM1258.4 358.775C1274.68 358.775 1287.33 353.024 1296.34 341.52C1305.61 329.767 1310.24 313.762 1310.24 293.506C1310.24 273.25 1305.73 257.37 1296.72 245.867C1287.7 234.363 1275.06 228.611 1258.78 228.611C1248.26 228.611 1239.12 231.362 1231.36 236.864C1223.6 242.115 1217.46 249.618 1212.95 259.371C1208.7 269.124 1206.57 280.752 1206.57 294.256C1206.57 307.51 1208.7 319.013 1212.95 328.766C1217.21 338.269 1223.22 345.646 1230.98 350.898C1239 356.149 1248.14 358.775 1258.4 358.775Z" fill="black"/>
<path d="M1510.07 266.873C1510.07 254.369 1506.56 244.741 1499.55 237.989C1492.79 230.987 1483.4 227.486 1471.38 227.486C1460.11 227.486 1450.47 230.112 1442.45 235.363C1434.44 240.615 1428.55 249.118 1424.8 260.871L1390.99 246.617C1395.75 231.362 1405.02 219.109 1418.79 209.856C1432.81 200.603 1450.84 195.977 1472.88 195.977C1487.9 195.977 1501.18 198.477 1512.7 203.479C1524.21 208.23 1533.23 215.483 1539.74 225.235C1546.5 234.988 1549.88 247.492 1549.88 262.747V346.397C1549.88 355.649 1554.52 360.276 1563.78 360.276C1568.29 360.276 1572.67 359.651 1576.93 358.4L1574.67 386.158C1568.91 388.909 1561.65 390.285 1552.89 390.285C1544.87 390.285 1537.61 388.909 1531.1 386.158C1524.84 383.158 1519.83 378.781 1516.08 373.03C1512.57 367.028 1510.82 359.651 1510.82 350.898V348.272L1519.08 347.897C1516.83 357.65 1512.19 365.777 1505.18 372.279C1498.17 378.531 1490.03 383.283 1480.77 386.534C1471.5 389.534 1462.11 391.035 1452.59 391.035C1440.83 391.035 1430.18 389.159 1420.67 385.408C1411.4 381.657 1404.01 376.03 1398.5 368.528C1393.25 360.776 1390.62 351.273 1390.62 340.02C1390.62 326.016 1395.12 314.512 1404.14 305.509C1413.4 296.507 1426.43 290.38 1443.2 287.129L1516.08 272.875L1515.7 301.008L1462.74 311.886C1452.22 313.887 1444.33 316.763 1439.07 320.514C1433.81 324.265 1431.18 329.767 1431.18 337.019C1431.18 344.021 1433.81 349.648 1439.07 353.899C1444.58 357.9 1451.84 359.901 1460.86 359.901C1467.12 359.901 1473.13 359.15 1478.89 357.65C1484.9 356.149 1490.28 353.774 1495.04 350.523C1499.8 347.022 1503.43 342.645 1505.93 337.394C1508.69 331.892 1510.07 325.39 1510.07 317.888V266.873Z" fill="black"/>
<path d="M1615.74 387.284V199.728H1651.42L1654.05 248.492L1648.79 243.241C1652.3 232.488 1657.3 223.61 1663.82 216.608C1670.58 209.356 1678.47 204.104 1687.48 200.853C1696.75 197.602 1706.51 195.977 1716.78 195.977C1730.05 195.977 1741.95 198.602 1752.46 203.854C1763.23 208.856 1771.75 216.483 1778.01 226.736C1784.27 236.989 1787.4 249.993 1787.4 265.748V387.284H1747.21V278.126C1747.21 259.621 1743.32 246.867 1735.56 239.865C1728.05 232.613 1718.53 228.987 1707.01 228.987C1698.75 228.987 1690.74 230.987 1682.97 234.988C1675.21 238.739 1668.7 244.866 1663.44 253.369C1658.43 261.871 1655.93 273.25 1655.93 287.504V387.284H1615.74Z" fill="black"/>
<path d="M1868.59 168.218C1859.82 168.218 1853.06 166.093 1848.3 161.842C1843.79 157.34 1841.54 151.088 1841.54 143.086C1841.54 135.084 1843.79 128.957 1848.3 124.705C1853.06 120.454 1859.82 118.329 1868.59 118.329C1877.1 118.329 1883.61 120.454 1888.12 124.705C1892.88 128.957 1895.26 135.084 1895.26 143.086C1895.26 151.088 1892.88 157.34 1888.12 161.842C1883.61 166.093 1877.1 168.218 1868.59 168.218ZM1888.49 199.728V387.284H1848.3V199.728H1888.49Z" fill="black"/>
<path d="M1951.38 387.284V199.728H1987.06L1988.94 231.237C1995.45 219.234 2004.09 210.356 2014.86 204.604C2025.88 198.853 2037.52 195.977 2049.79 195.977C2063.32 195.977 2075.71 199.103 2086.98 205.355C2098.5 211.356 2107.14 220.484 2112.9 232.738C2116.91 224.485 2122.42 217.608 2129.43 212.107C2136.44 206.605 2144.2 202.604 2152.72 200.103C2161.23 197.352 2169.62 195.977 2177.88 195.977C2189.9 195.977 2201.17 198.477 2211.69 203.479C2222.21 208.48 2230.72 216.108 2237.23 226.361C2243.74 236.614 2247 249.743 2247 265.748V387.284H2206.81V272.124C2206.81 256.87 2203.18 245.867 2195.91 239.115C2188.65 232.363 2179.39 228.987 2168.12 228.987C2159.35 228.987 2151.21 231.112 2143.7 235.363C2136.44 239.615 2130.56 245.992 2126.05 254.494C2121.54 262.747 2119.29 273 2119.29 285.253V387.284H2079.09V272.124C2079.09 256.87 2075.46 245.867 2068.2 239.115C2060.94 232.363 2051.67 228.987 2040.4 228.987C2032.89 228.987 2025.38 230.987 2017.87 234.988C2010.35 238.99 2004.09 245.241 1999.09 253.744C1994.08 262.246 1991.57 273.5 1991.57 287.504V387.284H1951.38Z" fill="black"/>
<path d="M887.791 270.905C889.476 286.631 887.947 301.347 883.203 315.056C878.356 328.536 870.873 340.469 860.756 350.854C850.639 361.238 838.177 369.806 823.369 376.556C801.728 386.421 780.801 390.325 760.59 388.268C740.379 386.21 721.992 378.51 705.43 365.168C688.868 351.826 675.074 333.098 664.049 308.985C653.023 284.872 647.886 262.198 648.637 240.963C649.388 219.729 655.605 200.813 667.287 184.217C678.969 167.621 695.516 154.443 716.93 144.681C731.738 137.931 746.001 133.903 759.719 132.598C773.665 131.189 786.725 132.658 798.898 137.005C811.072 141.352 822.245 148.629 832.418 158.836L804.926 189.923C794.233 178.579 783.154 171.809 771.689 169.613C760.12 167.19 747.387 169.145 733.491 175.48C719.595 181.815 708.915 190.669 701.453 202.043C693.99 213.417 690.158 226.709 689.956 241.921C689.981 257.028 694.103 273.568 702.32 291.539C710.434 309.282 720.136 323.277 731.429 333.524C742.617 343.543 754.845 349.515 768.113 351.438C781.381 353.362 795.19 351.053 809.542 344.511C823.439 338.176 833.786 329.198 840.585 317.577C847.508 305.625 849.857 291.496 847.632 275.192L887.791 270.905Z" fill="black"/>
<defs>
<linearGradient id="paint0_linear_1137_214" x1="19.8972" y1="-85.9651" x2="515.972" y2="-85.9853" gradientUnits="userSpaceOnUse">
<stop stop-color="#00D1FF"/>
<stop offset="1" stop-color="#65F9C9"/>
</linearGradient>
<linearGradient id="paint1_linear_1137_214" x1="19.8972" y1="-85.9651" x2="515.972" y2="-85.9853" gradientUnits="userSpaceOnUse">
<stop stop-color="#00D1FF"/>
<stop offset="1" stop-color="#65F9C9"/>
</linearGradient>
</defs>
</svg>
