<svg width="1309" height="1345" viewBox="0 0 1309 1345" fill="none" xmlns="http://www.w3.org/2000/svg">
<path fill-rule="evenodd" clip-rule="evenodd" d="M874.045 760.645V634.674H880.529V760.645C880.495 792.51 867.82 823.06 845.285 845.589C822.751 868.118 792.199 880.786 760.335 880.811H170.939C139.075 880.786 108.523 868.118 85.9891 845.589C63.4548 823.06 50.7795 792.51 50.7451 760.645V171.226C50.7794 139.358 63.4537 108.805 85.9871 86.2705C108.52 63.7362 139.072 51.0614 170.939 51.0271H760.335C792.202 51.0614 822.754 63.7362 845.287 86.2705C867.821 108.805 880.495 139.358 880.529 171.226V304.843H874.045V171.226C874.01 141.078 862.019 112.174 840.702 90.856C819.385 69.538 790.482 57.5464 760.335 57.5121H170.939C140.792 57.5464 111.89 69.538 90.5725 90.856C69.2552 112.174 57.2642 141.078 57.2298 171.226V760.645C57.2642 790.79 69.2563 819.69 90.5745 841.003C111.893 862.316 140.795 874.301 170.939 874.326H760.335C790.477 874.292 819.374 862.305 840.691 840.994C862.007 819.683 874.002 790.788 874.045 760.645ZM1221.42 500.869C1244.81 524.257 1257.97 555.968 1258 589.044V1169.32C1257.97 1202.4 1244.81 1234.11 1221.42 1257.5C1198.03 1280.89 1166.32 1294.04 1133.24 1294.08H552.972C519.895 1294.04 488.182 1280.89 464.793 1257.5C441.404 1234.11 428.249 1202.4 428.216 1169.32V1043.51H444.177V1169.32C444.211 1198.17 455.684 1225.82 476.08 1246.21C496.476 1266.61 524.128 1278.08 552.972 1278.12H1133.24C1162.09 1278.08 1189.74 1266.61 1210.14 1246.21C1230.53 1225.82 1242 1198.17 1242.04 1169.32V589.044C1242 560.201 1230.53 532.55 1210.14 512.155C1189.74 491.76 1162.09 480.287 1133.24 480.253H552.972C524.128 480.287 496.476 491.76 476.08 512.155C455.684 532.55 444.211 560.201 444.177 589.044V713.228H428.216V589.044C428.249 555.968 441.404 524.257 464.793 500.869C488.182 477.48 519.895 464.326 552.972 464.292H1133.24C1166.32 464.326 1198.03 477.48 1221.42 500.869Z" fill="url(#paint0_linear_1126_75)"/>
<path d="M874.045 634.674V584.236H823.607V634.674H874.045ZM874.045 760.645L924.482 760.717L924.483 760.681V760.645H874.045ZM880.529 634.674H930.967V584.236H880.529V634.674ZM880.529 760.645L930.967 760.699L930.967 760.672V760.645H880.529ZM845.285 845.589L880.946 881.258L880.946 881.258L845.285 845.589ZM760.335 880.811V931.249H760.356L760.376 931.249L760.335 880.811ZM170.939 880.811L170.899 931.249L170.919 931.249H170.939V880.811ZM85.9891 845.589L50.3282 881.258L50.3282 881.258L85.9891 845.589ZM50.7451 760.645H0.307247V760.672L0.307276 760.699L50.7451 760.645ZM50.7451 171.226L0.307276 171.172L0.307247 171.199V171.226H50.7451ZM85.9871 86.2705L121.653 121.935L121.653 121.935L85.9871 86.2705ZM170.939 51.0271V0.58923H170.912L170.885 0.589259L170.939 51.0271ZM760.335 51.0271L760.389 0.589259L760.362 0.58923H760.335V51.0271ZM845.287 86.2705L809.622 121.935L809.622 121.935L845.287 86.2705ZM880.529 171.226H930.967V171.199L930.967 171.172L880.529 171.226ZM880.529 304.843V355.281H930.967V304.843H880.529ZM874.045 304.843H823.607V355.281H874.045V304.843ZM874.045 171.226H924.483V171.197L924.483 171.169L874.045 171.226ZM840.702 90.856L876.368 55.1918L876.368 55.1918L840.702 90.856ZM760.335 57.5121L760.393 7.07423L760.364 7.0742H760.335V57.5121ZM170.939 57.5121V7.0742H170.911L170.882 7.07423L170.939 57.5121ZM90.5725 90.856L126.238 126.52L126.238 126.52L90.5725 90.856ZM57.2298 171.226L6.792 171.169L6.79196 171.197V171.226H57.2298ZM57.2298 760.645H6.79196V760.674L6.792 760.702L57.2298 760.645ZM90.5745 841.003L54.9139 876.673L54.9139 876.673L90.5745 841.003ZM170.939 874.326L170.896 924.764L170.918 924.764H170.939V874.326ZM760.335 874.326V924.764H760.364L760.393 924.764L760.335 874.326ZM840.691 840.994L805.03 805.325L840.691 840.994ZM1258 589.044H1308.44V589.018L1308.44 588.993L1258 589.044ZM1221.42 500.869L1257.09 465.203L1257.09 465.203L1221.42 500.869ZM1258 1169.32L1308.44 1169.38L1308.44 1169.35V1169.32H1258ZM1221.42 1257.5L1257.09 1293.17L1257.09 1293.17L1221.42 1257.5ZM1133.24 1294.08V1344.51H1133.27L1133.29 1344.51L1133.24 1294.08ZM552.972 1294.08L552.921 1344.51L552.946 1344.51H552.972V1294.08ZM428.216 1169.32H377.778V1169.35L377.778 1169.38L428.216 1169.32ZM428.216 1043.51V993.076H377.778V1043.51H428.216ZM444.177 1043.51H494.615V993.076H444.177V1043.51ZM444.177 1169.32H393.739V1169.35L393.74 1169.38L444.177 1169.32ZM476.08 1246.21L440.416 1281.88L440.416 1281.88L476.08 1246.21ZM552.972 1278.12L552.913 1328.55L552.943 1328.55H552.972V1278.12ZM1133.24 1278.12V1328.55H1133.27L1133.3 1328.55L1133.24 1278.12ZM1242.04 1169.32L1292.48 1169.38L1292.48 1169.35V1169.32H1242.04ZM1242.04 589.044H1292.48V589.015L1292.48 588.985L1242.04 589.044ZM1210.14 512.155L1174.47 547.82L1174.47 547.82L1210.14 512.155ZM1133.24 480.253L1133.3 429.816L1133.27 429.816H1133.24V480.253ZM552.972 480.253V429.816H552.943L552.913 429.816L552.972 480.253ZM476.08 512.155L511.744 547.82L476.08 512.155ZM444.177 589.044L393.74 588.985L393.739 589.015V589.044H444.177ZM444.177 713.228V763.666H494.615V713.228H444.177ZM428.216 713.228H377.778V763.666H428.216V713.228ZM428.216 589.044L377.778 588.993L377.778 589.018V589.044H428.216ZM464.793 500.869L429.129 465.203L429.129 465.203L464.793 500.869ZM552.972 464.292V413.855H552.946L552.921 413.855L552.972 464.292ZM1133.24 464.292L1133.29 413.855L1133.27 413.855H1133.24V464.292ZM823.607 634.674V760.645H924.483V634.674H823.607ZM880.529 584.236H874.045V685.112H880.529V584.236ZM930.967 760.645V634.674H830.092V760.645H930.967ZM880.946 881.258C912.929 849.283 930.918 805.924 930.967 760.699L830.092 760.591C830.072 779.096 822.711 796.837 809.624 809.92L880.946 881.258ZM760.376 931.249C805.601 931.213 848.964 913.233 880.946 881.258L809.625 809.92C796.539 823.003 778.797 830.359 760.294 830.374L760.376 931.249ZM170.939 931.249H760.335V830.374H170.939V931.249ZM50.3282 881.258C82.3109 913.233 125.673 931.213 170.899 931.249L170.98 830.374C152.477 830.359 134.736 823.003 121.65 809.92L50.3282 881.258ZM0.307276 760.699C0.35602 805.924 18.3456 849.283 50.3282 881.258L121.65 809.92C108.564 796.837 101.203 779.096 101.183 760.591L0.307276 760.699ZM0.307247 171.226V760.645H101.183V171.226H0.307247ZM50.3214 50.6062C18.3427 82.5862 0.355996 125.946 0.307276 171.172L101.183 171.28C101.203 152.77 108.565 135.023 121.653 121.935L50.3214 50.6062ZM170.885 0.589259C125.659 0.637982 82.3002 18.6261 50.3214 50.6062L121.653 121.935C134.741 108.846 152.485 101.485 170.994 101.465L170.885 0.589259ZM760.335 0.58923H170.939V101.465H760.335V0.58923ZM880.953 50.6062C848.974 18.6261 805.615 0.637982 760.389 0.589259L760.281 101.465C778.789 101.485 796.534 108.846 809.622 121.935L880.953 50.6062ZM930.967 171.172C930.918 125.946 912.932 82.5862 880.953 50.6062L809.622 121.935C822.71 135.023 830.072 152.77 830.092 171.28L930.967 171.172ZM930.967 304.843V171.226H830.092V304.843H930.967ZM874.045 355.281H880.529V254.406H874.045V355.281ZM823.607 171.226V304.843H924.483V171.226H823.607ZM805.036 126.52C816.909 138.393 823.588 154.492 823.607 171.284L924.483 171.169C924.433 127.664 907.129 85.9548 876.368 55.1918L805.036 126.52ZM760.278 107.95C777.067 107.969 793.164 114.647 805.036 126.52L876.368 55.1918C845.606 24.4287 803.897 7.12377 760.393 7.07423L760.278 107.95ZM170.939 107.95H760.335V7.0742H170.939V107.95ZM126.238 126.52C138.111 114.647 154.207 107.969 170.997 107.95L170.882 7.07423C127.377 7.12377 85.6688 24.4286 54.9068 55.1918L126.238 126.52ZM107.668 171.283C107.687 154.492 114.366 138.393 126.238 126.52L54.9068 55.1918C24.1449 85.9549 6.84153 127.664 6.792 171.169L107.668 171.283ZM107.668 760.645V171.226H6.79196V760.645H107.668ZM126.235 805.334C114.365 793.466 107.687 777.374 107.668 760.587L6.792 760.702C6.84155 804.207 24.148 845.914 54.9139 876.673L126.235 805.334ZM170.982 823.889C154.198 823.874 138.105 817.201 126.235 805.334L54.9139 876.673C85.6798 907.431 127.392 924.727 170.896 924.764L170.982 823.889ZM760.335 823.889H170.939V924.764H760.335V823.889ZM805.03 805.325C793.158 817.194 777.064 823.869 760.278 823.889L760.393 924.764C803.889 924.715 845.59 907.416 876.351 876.663L805.03 805.325ZM823.607 760.573C823.583 777.362 816.902 793.456 805.03 805.325L876.351 876.663C907.112 845.91 924.421 804.213 924.482 760.717L823.607 760.573ZM1308.44 588.993C1308.39 542.557 1289.92 498.037 1257.09 465.203L1185.76 536.534C1199.7 550.476 1207.54 569.38 1207.56 589.096L1308.44 588.993ZM1308.44 1169.32V589.044H1207.56V1169.32H1308.44ZM1257.09 1293.17C1289.92 1260.33 1308.39 1215.81 1308.44 1169.38L1207.56 1169.27C1207.54 1188.99 1199.7 1207.89 1185.76 1221.83L1257.09 1293.17ZM1133.29 1344.51C1179.73 1344.47 1224.25 1326 1257.09 1293.17L1185.76 1221.83C1171.82 1235.78 1152.91 1243.62 1133.19 1243.64L1133.29 1344.51ZM552.972 1344.51H1133.24V1243.64H552.972V1344.51ZM429.129 1293.17C461.965 1326 506.485 1344.47 552.921 1344.51L553.024 1243.64C533.305 1243.62 514.4 1235.78 500.458 1221.83L429.129 1293.17ZM377.778 1169.38C377.825 1215.81 396.294 1260.33 429.129 1293.17L500.458 1221.83C486.515 1207.89 478.674 1188.99 478.654 1169.27L377.778 1169.38ZM377.778 1043.51V1169.32H478.654V1043.51H377.778ZM444.177 993.076H428.216V1093.95H444.177V993.076ZM494.615 1169.32V1043.51H393.739V1169.32H494.615ZM511.744 1210.55C500.793 1199.6 494.633 1184.75 494.615 1169.27L393.74 1169.38C393.789 1211.58 410.575 1252.04 440.416 1281.88L511.744 1210.55ZM553.031 1227.68C537.543 1227.66 522.695 1221.5 511.744 1210.55L440.416 1281.88C470.256 1311.72 510.713 1328.5 552.913 1328.55L553.031 1227.68ZM1133.24 1227.68H552.972V1328.55H1133.24V1227.68ZM1174.47 1210.55C1163.52 1221.5 1148.67 1227.66 1133.18 1227.68L1133.3 1328.55C1175.5 1328.5 1215.96 1311.72 1245.8 1281.88L1174.47 1210.55ZM1191.6 1169.27C1191.58 1184.75 1185.42 1199.6 1174.47 1210.55L1245.8 1281.88C1275.64 1252.04 1292.43 1211.58 1292.48 1169.38L1191.6 1169.27ZM1191.6 589.044V1169.32H1292.48V589.044H1191.6ZM1174.47 547.82C1185.42 558.771 1191.58 573.618 1191.6 589.103L1292.48 588.985C1292.43 546.785 1275.64 506.328 1245.8 476.489L1174.47 547.82ZM1133.18 530.691C1148.67 530.709 1163.52 536.87 1174.47 547.82L1245.8 476.489C1215.96 446.65 1175.5 429.865 1133.3 429.816L1133.18 530.691ZM552.972 530.691H1133.24V429.816H552.972V530.691ZM511.744 547.82C522.695 536.87 537.543 530.709 553.031 530.691L552.913 429.816C510.713 429.865 470.256 446.65 440.416 476.489L511.744 547.82ZM494.615 589.103C494.633 573.618 500.793 558.771 511.744 547.82L440.416 476.489C410.575 506.328 393.789 546.785 393.74 588.985L494.615 589.103ZM494.615 713.228V589.044H393.739V713.228H494.615ZM428.216 763.666H444.177V662.79H428.216V763.666ZM377.778 589.044V713.228H478.654V589.044H377.778ZM429.129 465.203C396.294 498.037 377.825 542.557 377.778 588.993L478.654 589.096C478.674 569.38 486.515 550.476 500.458 536.534L429.129 465.203ZM552.921 413.855C506.485 413.902 461.965 432.369 429.129 465.203L500.458 536.534C514.4 522.592 533.305 514.75 553.024 514.73L552.921 413.855ZM1133.24 413.855H552.972V514.73H1133.24V413.855ZM1257.09 465.203C1224.25 432.369 1179.73 413.902 1133.29 413.855L1133.19 514.73C1152.91 514.75 1171.82 522.592 1185.76 536.534L1257.09 465.203Z" fill="url(#paint1_linear_1126_75)"/>
<defs>
<linearGradient id="paint0_linear_1126_75" x1="50.4832" y1="-218.589" x2="1313.96" y2="-218.641" gradientUnits="userSpaceOnUse">
<stop stop-color="#00D1FF"/>
<stop offset="1" stop-color="#65F9C9"/>
</linearGradient>
<linearGradient id="paint1_linear_1126_75" x1="50.4832" y1="-218.589" x2="1313.96" y2="-218.641" gradientUnits="userSpaceOnUse">
<stop stop-color="#00D1FF"/>
<stop offset="1" stop-color="#65F9C9"/>
</linearGradient>
</defs>
</svg>
